<?xml version="1.0" encoding="utf-8"?>
<!-- Generator: Adobe Illustrator 22.1.0, SVG Export Plug-In . SVG Version: 6.00 Build 0)  -->
<svg version="1.1" id="图层_1" xmlns="http://www.w3.org/2000/svg" xmlns:xlink="http://www.w3.org/1999/xlink" x="0px" y="0px"
	 viewBox="0 0 24 24" style="enable-background:new 0 0 24 24;" xml:space="preserve">
<style type="text/css">
	.st0{fill:none;}
	.st1{fill:#4853E3;}
</style>
<path class="st0" d="M0,0h24v24H0V0z"/>
<path class="st1" d="M4.9,7h17V4.2H4.1c-1.1,0-2,0.9-2,2V17h-2v3H14v-3H4.9V7z M22.9,8.5H17c-0.5,0-1,0.4-1,1V19c0,0.5,0.4,1,1,1
	h5.9c0.5,0,1-0.4,1-1V9.5C23.9,9,23.4,8.5,22.9,8.5z M21.9,17h-4v-6.1h4V17z"/>
</svg>
