<?xml version="1.0" encoding="utf-8"?>
<!-- Generator: Adobe Illustrator 22.1.0, SVG Export Plug-In . SVG Version: 6.00 Build 0)  -->
<svg version="1.1" id="图层_1" xmlns="http://www.w3.org/2000/svg" xmlns:xlink="http://www.w3.org/1999/xlink" x="0px" y="0px"
	 viewBox="0 0 200 200" style="enable-background:new 0 0 200 200;" xml:space="preserve">
<style type="text/css">
	.st0{fill:#FFFFFF;}
</style>
<path class="st0" d="M0,100c0,55,45,100,100,100s100-45,100-100S155,0,100,0S0,45,0,100z M183.3,100c0,45.8-37.5,83.3-83.3,83.3
	S16.7,145.8,16.7,100S54.2,16.7,100,16.7S183.3,54.2,183.3,100L183.3,100z"/>
<path class="st0" d="M77.5,45c-3.3,3.3-3.3,8.3,0,11.7l43.3,43.3l-43.3,43.3c-3.3,3.3-3.3,8.3,0,11.7c3.3,3.3,8.3,3.3,11.7,0
	l49.2-49.2c3.3-3.3,3.3-8.3,0-11.7L89.2,45C86.7,41.7,80.8,41.7,77.5,45L77.5,45z"/>
</svg>
